<svg width="89" height="100" viewBox="0 0 89 100" fill="none" xmlns="http://www.w3.org/2000/svg">
<path d="M44.2136 100C42.8869 100 41.5405 99.6428 40.3723 98.9682L28.1557 91.7254C26.3341 90.6935 27.2251 90.3363 27.8191 90.1379C30.2545 89.2847 30.7495 89.1061 33.3433 87.6178C33.6205 87.4591 33.9769 87.5186 34.2541 87.6972L43.6394 93.2731C43.976 93.4716 44.4512 93.4716 44.768 93.2731L81.3387 72.1203C81.6753 71.9218 81.8931 71.525 81.8931 71.1281V28.8223C81.8931 28.4056 81.6753 28.0286 81.3189 27.8103L44.768 6.67725C44.4314 6.47882 43.976 6.47882 43.6394 6.67725L7.10822 27.8301C6.75182 28.0286 6.53402 28.4254 6.53402 28.8421V71.1281C6.53402 71.525 6.75182 71.9218 7.10822 72.1004L17.1271 77.8946C22.5721 80.6132 25.8985 77.4184 25.8985 74.1839V32.4338C25.8985 31.8385 26.3737 31.3821 26.9677 31.3821H31.6009C32.1751 31.3821 32.6701 31.8385 32.6701 32.4338V74.2038C32.6701 81.4664 28.7101 85.6335 21.8395 85.6335C19.7209 85.6335 18.0577 85.6335 13.4244 83.3317L3.84121 77.7954C1.4652 76.4262 0 73.8665 0 71.1082V28.8223C0 26.0839 1.4652 23.5043 3.84121 22.1351L40.3723 0.98224C42.6889 -0.327413 45.758 -0.327413 48.0548 0.98224L84.6255 22.155C87.0015 23.5242 88.4667 26.0839 88.4667 28.8421V71.1281C88.4667 73.8665 87.0015 76.4262 84.6255 77.8153L48.0548 98.9682C46.8866 99.6428 45.56 100 44.2136 100ZM73.7355 58.3094C73.7355 50.3919 68.3894 48.2885 57.1628 46.8003C45.7976 45.2922 44.6492 44.5183 44.6492 41.8593C44.6492 39.6567 45.6194 36.7199 54.0344 36.7199C61.5386 36.7199 64.3106 38.3471 65.459 43.4269C65.558 43.9032 65.9936 44.2603 66.4886 44.2603H71.2406C71.5376 44.2603 71.8148 44.1413 72.0128 43.923C72.2108 43.7047 72.3098 43.4071 72.29 43.1094C71.5574 34.3586 65.756 30.2907 54.0344 30.2907C43.5997 30.2907 37.3825 34.6959 37.3825 42.0974C37.3825 50.1141 43.5799 52.3365 53.579 53.3287C65.558 54.4995 66.4886 56.2655 66.4886 58.6269C66.4886 62.7146 63.2018 64.4608 55.4996 64.4608C45.8174 64.4608 43.6988 62.02 42.9859 57.1981C42.9067 56.6822 42.4711 56.3052 41.9365 56.3052H37.2043C36.6103 56.3052 36.1549 56.7814 36.1549 57.3569C36.1549 63.5281 39.5011 70.89 55.5194 70.89C67.0826 70.8701 73.7355 66.2863 73.7355 58.3094V58.3094Z" fill="black"/>
</svg>
