<svg width="100" height="100" viewBox="0 0 100 100" fill="none" xmlns="http://www.w3.org/2000/svg">
<path fill-rule="evenodd" clip-rule="evenodd" d="M10 0C4.47715 0 0 4.47716 0 10V90C0 95.5229 4.47716 100 10 100H90C95.5229 100 100 95.5228 100 90V10C100 4.47715 95.5228 0 90 0H10ZM80.3883 75.4377C81.4415 76.2611 81.9681 77.41 81.9681 78.8844C81.9681 80.1865 81.4798 81.2014 80.5032 81.929C79.5458 82.6375 78.2341 82.9917 76.5682 82.9917C73.9641 82.9917 72.078 82.4651 70.9099 81.412C69.761 80.3397 69.1866 78.6834 69.1866 76.443H59.0763C59.0763 79.2004 59.7656 81.6418 61.1443 83.7672C62.5421 85.8735 64.6101 87.5394 67.3484 88.7649C70.1057 89.9713 73.179 90.5744 76.5682 90.5744C81.3745 90.5744 85.1562 89.5309 87.9136 87.4437C90.671 85.3565 92.0496 82.4843 92.0496 78.827C92.0496 74.2505 89.7901 70.6602 85.2711 68.0561C83.4138 66.9838 81.0394 65.9881 78.148 65.0689C75.2566 64.1307 73.2364 63.2307 72.0875 62.369C70.9387 61.4882 70.3642 60.5116 70.3642 59.4393C70.3642 58.2138 70.8812 57.2086 71.9152 56.4235C72.9684 55.6193 74.3949 55.2171 76.1949 55.2171C77.9756 55.2171 79.383 55.6863 80.4171 56.6245C81.4702 57.5628 81.9968 58.884 81.9968 60.5882H92.0496C92.0496 58.0415 91.389 55.782 90.0678 53.8097C88.7466 51.8183 86.8892 50.2865 84.4956 49.2142C82.1212 48.1418 79.4309 47.6057 76.4246 47.6057C73.3418 47.6057 70.5653 48.1036 68.0951 49.0993C65.625 50.0758 63.7102 51.4545 62.3506 53.2353C61.0103 54.9969 60.3401 57.0362 60.3401 59.3532C60.3401 64.0062 63.0496 67.6635 68.4685 70.3251C70.1344 71.1485 72.279 72.0006 74.9023 72.8814C77.5257 73.7623 79.3543 74.6144 80.3883 75.4377ZM46.9669 55.9639H59.5186V48.1801H24.5634V55.9639H36.8853V90H46.9669V55.9639Z" fill="black"/>
</svg>
