<svg width="115" height="100" viewBox="0 0 115 100" fill="none" xmlns="http://www.w3.org/2000/svg">
<path d="M93.3482 32.4062C92.1429 32.0044 90.9375 31.625 89.7321 31.2679C89.933 30.442 90.1116 29.6162 90.2902 28.7903C93.0357 15.4875 91.2277 4.79606 85.1339 1.26946C79.2634 -2.10089 69.6875 1.40338 60 9.84043C59.0402 10.6663 58.1027 11.5368 57.2098 12.4073C56.6071 11.8269 55.9821 11.2466 55.3571 10.6886C45.2009 1.67123 35.0223 -2.12321 28.9286 1.4257C23.0804 4.81838 21.3393 14.8848 23.7946 27.4734C24.0402 28.7234 24.308 29.951 24.6205 31.2009C23.192 31.6027 21.7857 32.0491 20.4687 32.5178C8.54911 36.647 0 43.1645 0 49.9053C0 56.8692 9.10714 63.8554 21.4955 68.0962C22.5 68.4311 23.5045 68.7659 24.5313 69.056C24.1964 70.3952 23.9063 71.7121 23.6384 73.0737C21.2946 85.4614 23.125 95.2823 28.9732 98.6527C35 102.135 45.1339 98.5634 55 89.9254C55.7812 89.2335 56.5625 88.5193 57.3437 87.7604C58.3259 88.7201 59.3527 89.6353 60.3795 90.5281C69.933 98.7419 79.375 102.068 85.2009 98.6973C91.2277 95.2153 93.192 84.6579 90.6473 71.8014C90.4464 70.8193 90.2232 69.8149 89.9777 68.7882C90.692 68.5873 91.3839 68.3641 92.0759 68.1409C104.955 63.8777 114.286 56.9808 114.286 49.9053C114.286 43.1422 105.491 36.5801 93.3482 32.4062V32.4062ZM63.1473 13.4563C71.4509 6.22456 79.1964 3.38988 82.7232 5.42103C86.4955 7.58609 87.9464 16.3356 85.5804 27.8305C85.4241 28.5894 85.2679 29.326 85.067 30.0626C80.1116 28.9466 75.0893 28.143 70.0446 27.6966C67.1429 23.5451 63.9732 19.5721 60.5357 15.8446C61.4063 15.0187 62.2545 14.2375 63.1473 13.4563V13.4563ZM37.3214 61.4895C38.4598 63.4313 39.6205 65.3732 40.8482 67.2704C37.3661 66.891 33.9063 66.3329 30.4911 65.5964C31.4732 62.3823 32.7009 59.0566 34.1295 55.6639C35.1562 57.6281 36.2054 59.5699 37.3214 61.4895V61.4895ZM30.558 34.6382C33.7723 33.924 37.1875 33.3436 40.7366 32.8972C39.5536 34.7498 38.3929 36.647 37.2991 38.5666C36.2054 40.4638 35.1339 42.4057 34.1295 44.3698C32.7232 41.0441 31.5402 37.7854 30.558 34.6382ZM36.6741 50.0169C38.1473 46.9367 39.7545 43.9234 41.4509 40.9548C43.1473 37.9862 44.9777 35.1069 46.8973 32.2723C50.2455 32.0267 53.6607 31.8928 57.1429 31.8928C60.625 31.8928 64.0625 32.0267 67.3884 32.2723C69.2857 35.0846 71.0938 37.9639 72.8125 40.9102C74.5313 43.8565 76.1384 46.8697 77.6562 49.9276C76.1607 53.0078 74.5536 56.0433 72.8348 59.0342C71.1384 62.0028 69.3304 64.8821 67.433 67.7391C64.1071 67.9846 60.6473 68.0962 57.1429 68.0962C53.6384 68.0962 50.2455 67.9846 46.9643 67.7838C45.0223 64.9491 43.192 62.0475 41.4732 59.0789C39.7545 56.1103 38.1696 53.0971 36.6741 50.0169ZM76.9866 61.4448C78.125 59.4806 79.1964 57.4941 80.2455 55.4853C81.6741 58.7218 82.9241 62.0028 84.0179 65.3732C80.558 66.1544 77.0536 66.757 73.5268 67.1588C74.7321 65.2839 75.8705 63.3644 76.9866 61.4448ZM80.2009 44.3698C79.1518 42.4057 78.0804 40.4415 76.9643 38.5219C75.8705 36.6247 74.7321 34.7498 73.5491 32.8972C77.1429 33.3436 80.5804 33.9463 83.7946 34.6829C82.7679 37.9862 81.5625 41.2004 80.2009 44.3698V44.3698ZM57.1875 19.2596C59.5313 21.8041 61.7411 24.4825 63.7946 27.2502C59.375 27.0493 54.933 27.0493 50.5134 27.2502C52.7009 24.3709 54.9554 21.6925 57.1875 19.2596ZM31.2946 5.57727C35.0446 3.38988 43.3705 6.51472 52.1429 14.2822C52.7009 14.7732 53.2589 15.3089 53.8393 15.8446C50.3795 19.5721 47.1875 23.5451 44.2634 27.6966C39.2188 28.143 34.2188 28.9242 29.2634 30.0179C28.9732 28.8796 28.7277 27.7189 28.4821 26.5583C26.3839 15.7553 27.7679 7.60841 31.2946 5.57727V5.57727ZM25.8259 64.4134C24.8884 64.1456 23.9732 63.8554 23.058 63.5429C18.3036 62.0475 12.9018 59.6815 8.99554 56.579C6.74107 55.0166 5.22321 52.606 4.79911 49.9053C4.79911 45.8207 11.8527 40.5977 22.0312 37.0488C23.3036 36.6024 24.5982 36.2006 25.8929 35.8212C27.4107 40.6647 29.2411 45.4189 31.3616 50.0169C29.2187 54.6818 27.3661 59.503 25.8259 64.4134V64.4134ZM51.8527 86.2872C48.1696 89.6576 43.9062 92.336 39.2634 94.1663C36.7857 95.3493 33.9286 95.4609 31.3839 94.4564C27.8348 92.403 26.3616 84.5239 28.3705 73.9218C28.6161 72.6719 28.8839 71.422 29.1964 70.1944C34.1964 71.2657 39.2411 72.0023 44.3527 72.3817C47.2991 76.5556 50.5357 80.5509 53.9955 84.3007C53.2812 84.9927 52.567 85.6623 51.8527 86.2872ZM57.3214 80.8634C55.0446 78.4082 52.7679 75.6851 50.558 72.7612C52.7009 72.8505 54.9107 72.8951 57.1429 72.8951C59.442 72.8951 61.6964 72.8505 63.9286 72.7389C61.875 75.5735 59.6652 78.2743 57.3214 80.8634V80.8634ZM86.4955 87.5595C86.2946 90.2826 84.9554 92.8271 82.8125 94.5457C79.2634 96.5992 71.6964 93.9208 63.5268 86.9122C62.5893 86.1087 61.6518 85.2382 60.692 84.3454C64.1071 80.5733 67.2545 76.5779 70.1116 72.3817C75.2232 71.9576 80.3125 71.1764 85.3348 70.0381C85.558 70.9532 85.7589 71.8684 85.9375 72.7612C87.0312 77.5823 87.2098 82.6044 86.4955 87.5595V87.5595ZM90.558 63.5652C89.933 63.7661 89.308 63.967 88.6607 64.1456C87.0982 59.2798 85.1786 54.5255 82.9688 49.9053C85.1116 45.3519 86.9196 40.6647 88.4375 35.8658C89.5982 36.2006 90.7143 36.5578 91.7857 36.9149C102.188 40.4861 109.487 45.7983 109.487 49.8606C109.487 54.2354 101.696 59.8824 90.558 63.5652ZM57.1429 60.2172C62.7902 60.2172 67.3661 55.6416 67.3661 49.9945C67.3661 44.3475 62.7902 39.7719 57.1429 39.7719C51.4955 39.7719 46.9196 44.3475 46.9196 49.9945C46.9196 55.6416 51.4955 60.2172 57.1429 60.2172Z" fill="black"/>
</svg>
